<svg width="24" height="22" viewBox="0 0 24 22" fill="none" xmlns="http://www.w3.org/2000/svg">
<path d="M11.9997 11.4853C15.6945 11.4853 18.7004 9.02328 18.7004 5.99745C18.7004 2.97129 15.6945 0.509277 11.9997 0.509277C8.30497 0.509277 5.29903 2.97129 5.29903 5.99745C5.29903 9.02328 8.30497 11.4853 11.9997 11.4853ZM11.9997 1.88528C14.7684 1.88528 17.0204 3.72981 17.0204 5.99745C17.0204 8.26476 14.7684 10.1093 11.9997 10.1093C9.23107 10.1093 6.97903 8.26476 6.97903 5.99745C6.97903 3.73015 9.23107 1.88528 11.9997 1.88528ZM23.3859 21.044C22.0646 16.4798 17.382 13.292 11.9997 13.292C6.61741 13.292 1.93483 16.4798 0.613512 21.044L0.368652 21.8906H23.6312L23.3859 21.044ZM2.54425 20.5149C3.98023 17.0319 7.73671 14.668 11.9997 14.668C16.2627 14.668 20.0192 17.0319 21.4552 20.5149H2.54425Z" fill="white"/>
</svg>
