<svg width="18" height="20" viewBox="0 0 18 20" fill="none" xmlns="http://www.w3.org/2000/svg">
<path d="M16.6468 18.7003L16.6468 18.7004L16.6759 18.8233H1.32467L1.35379 18.7003C2.24901 14.9248 5.40799 12.3245 9.00028 12.3245C12.5926 12.3245 15.7516 14.9248 16.6468 18.7003ZM1.77266 17.9636L1.54981 18.6236H2.24638H15.7542H16.4508L16.2279 17.9636C15.1407 14.7439 12.2811 12.5245 9.00028 12.5245C5.71942 12.5245 2.85989 14.7439 1.77266 17.9636ZM13.2865 5.46296C13.2865 7.8256 11.3633 9.74886 9.00028 9.74886C6.63731 9.74886 4.71408 7.8256 4.71408 5.46296C4.71408 3.1 6.63733 1.17676 9.00028 1.17676C11.3632 1.17676 13.2865 3.1 13.2865 5.46296ZM13.0865 5.46296C13.0865 3.20922 11.254 1.37676 9.00028 1.37676C6.74651 1.37676 4.91408 3.20954 4.91408 5.46296C4.91408 7.71643 6.74657 9.54886 9.00028 9.54886C11.254 9.54886 13.0865 7.71643 13.0865 5.46296Z" fill="black" stroke="black"/>
</svg>
