<svg width="28" height="28" viewBox="0 0 28 28" fill="none" xmlns="http://www.w3.org/2000/svg">
<g opacity="0.75239">
<path fill-rule="evenodd" clip-rule="evenodd" d="M27.1097 25.4644V2.32225C27.1097 1.41314 26.3653 0.674194 25.4502 0.674194H4.78505C3.86963 0.674194 3.12555 1.41343 3.12555 2.32225V4.50287H2.37822C1.30361 4.50287 0.429688 5.37076 0.429688 6.43796V6.78358C0.429688 7.85078 1.30361 8.71838 2.37792 8.71838H3.12526V11.7857H2.37792C1.30361 11.7857 0.429688 12.6536 0.429688 13.7208V14.0665C0.429688 15.1336 1.30361 16.0012 2.37792 16.0012H3.12526V19.0686H2.37792C1.30361 19.0686 0.429688 19.9365 0.429688 21.0037V21.3493C0.429688 22.4165 1.30361 23.2841 2.37792 23.2841H3.12526V25.4644C3.12526 26.3735 3.86963 27.1125 4.78475 27.1125H25.4499C26.3653 27.1125 27.1097 26.3733 27.1097 25.4644ZM2.37792 7.43273C2.01744 7.43273 1.72426 7.14157 1.72426 6.78358V6.43796C1.72426 6.07997 2.01744 5.78881 2.37792 5.78881H5.16717C5.52764 5.78881 5.82083 6.07997 5.82083 6.43796V6.78358C5.82083 7.14157 5.52764 7.43273 5.16717 7.43273H2.37792ZM1.72426 14.0665C1.72426 14.4244 2.01744 14.7156 2.37792 14.7156H5.16717C5.52764 14.7156 5.82083 14.4244 5.82083 14.0665V13.7208C5.82083 13.3628 5.52764 13.0717 5.16717 13.0717H2.37792C2.01744 13.0717 1.72426 13.3628 1.72426 13.7208V14.0665ZM2.37792 21.9982C2.01744 21.9982 1.72426 21.707 1.72426 21.349V21.0034C1.72426 20.6454 2.01744 20.3542 2.37792 20.3542H5.16717C5.52764 20.3542 5.82083 20.6454 5.82083 21.0034V21.349C5.82083 21.707 5.52764 21.9982 5.16717 21.9982H2.37792ZM4.42013 23.2841V25.4644C4.42013 25.6608 4.58702 25.8268 4.78505 25.8271H25.4502C25.6482 25.8271 25.8151 25.6611 25.8151 25.4647V2.32254C25.8151 2.12618 25.6479 1.96013 25.4502 1.96013H4.78505C4.58732 1.96013 4.42013 2.12618 4.42013 2.32254V4.50316H5.16746C6.24178 4.50316 7.1157 5.37076 7.1157 6.43796V6.78358C7.1157 7.85049 6.24207 8.71838 5.16746 8.71838H4.42013V11.786H5.16746C6.24178 11.786 7.1157 12.6536 7.1157 13.7208V14.0665C7.1157 15.1334 6.24207 16.0012 5.16746 16.0012H4.42013V19.0689H5.16746C6.24178 19.0689 7.1157 19.9365 7.1157 21.0037V21.3493C7.1157 22.4162 6.24207 23.2841 5.16746 23.2841H4.42013Z" fill="#9B9B9B"/>
<path d="M3.12555 4.50287V4.65287H3.27555V4.50287H3.12555ZM3.12526 8.71838H3.27526V8.56838H3.12526V8.71838ZM3.12526 11.7857V11.9357H3.27526V11.7857H3.12526ZM3.12526 16.0012H3.27526V15.8512H3.12526V16.0012ZM3.12526 19.0686V19.2186H3.27526V19.0686H3.12526ZM3.12526 23.2841H3.27526V23.1341H3.12526V23.2841ZM4.42013 23.2841V23.1341H4.27013V23.2841H4.42013ZM4.78505 25.8271L4.78483 25.9771H4.78505V25.8271ZM4.42013 4.50316H4.27013V4.65316H4.42013V4.50316ZM4.42013 8.71838V8.56838H4.27013V8.71838H4.42013ZM4.42013 11.786H4.27013V11.936H4.42013V11.786ZM4.42013 16.0012V15.8512H4.27013V16.0012H4.42013ZM4.42013 19.0689H4.27013V19.2189H4.42013V19.0689ZM26.9597 2.32225V25.4644H27.2597V2.32225H26.9597ZM25.4502 0.824194C26.2835 0.824194 26.9597 1.49698 26.9597 2.32225H27.2597C27.2597 1.3293 26.4472 0.524194 25.4502 0.524194V0.824194ZM4.78505 0.824194H25.4502V0.524194H4.78505V0.824194ZM3.27555 2.32225C3.27555 1.49724 3.95151 0.824194 4.78505 0.824194V0.524194C3.78775 0.524194 2.97555 1.32963 2.97555 2.32225H3.27555ZM3.27555 4.50287V2.32225H2.97555V4.50287H3.27555ZM2.37822 4.65287H3.12555V4.35287H2.37822V4.65287ZM0.579688 6.43796C0.579688 5.45458 1.38547 4.65287 2.37822 4.65287V4.35287C1.22174 4.35287 0.279687 5.28694 0.279687 6.43796H0.579688ZM0.579688 6.78358V6.43796H0.279687V6.78358H0.579688ZM2.37792 8.56838C1.38545 8.56838 0.579688 7.76695 0.579688 6.78358H0.279687C0.279687 7.93462 1.22176 8.86838 2.37792 8.86838V8.56838ZM3.12526 8.56838H2.37792V8.86838H3.12526V8.56838ZM3.27526 11.7857V8.71838H2.97526V11.7857H3.27526ZM2.37792 11.9357H3.12526V11.6357H2.37792V11.9357ZM0.579688 13.7208C0.579688 12.7374 1.38548 11.9357 2.37792 11.9357V11.6357C1.22173 11.6357 0.279687 12.5698 0.279687 13.7208H0.579688ZM0.579688 14.0665V13.7208H0.279687V14.0665H0.579688ZM2.37792 15.8512C1.38545 15.8512 0.579688 15.0498 0.579688 14.0665H0.279687C0.279687 15.2175 1.22176 16.1512 2.37792 16.1512V15.8512ZM3.12526 15.8512H2.37792V16.1512H3.12526V15.8512ZM3.27526 19.0686V16.0012H2.97526V19.0686H3.27526ZM2.37792 19.2186H3.12526V18.9186H2.37792V19.2186ZM0.579688 21.0037C0.579688 20.0203 1.38548 19.2186 2.37792 19.2186V18.9186C1.22173 18.9186 0.279687 19.8527 0.279687 21.0037H0.579688ZM0.579688 21.3493V21.0037H0.279687V21.3493H0.579688ZM2.37792 23.1341C1.38545 23.1341 0.579688 22.3327 0.579688 21.3493H0.279687C0.279687 22.5004 1.22176 23.4341 2.37792 23.4341V23.1341ZM3.12526 23.1341H2.37792V23.4341H3.12526V23.1341ZM3.27526 25.4644V23.2841H2.97526V25.4644H3.27526ZM4.78475 26.9625C3.95147 26.9625 3.27526 26.2897 3.27526 25.4644H2.97526C2.97526 26.4574 3.78778 27.2625 4.78475 27.2625V26.9625ZM25.4499 26.9625H4.78475V27.2625H25.4499V26.9625ZM26.9597 25.4644C26.9597 26.2894 26.2835 26.9625 25.4499 26.9625V27.2625C26.4472 27.2625 27.2597 26.4571 27.2597 25.4644H26.9597ZM1.57426 6.78358C1.57426 7.22539 1.93558 7.58274 2.37792 7.58274V7.28273C2.09931 7.28273 1.87426 7.05775 1.87426 6.78358H1.57426ZM1.57426 6.43796V6.78358H1.87426V6.43796H1.57426ZM2.37792 5.63881C1.93558 5.63881 1.57426 5.99615 1.57426 6.43796H1.87426C1.87426 6.16379 2.09931 5.93881 2.37792 5.93881V5.63881ZM5.16717 5.63881H2.37792V5.93881H5.16717V5.63881ZM5.97083 6.43796C5.97083 5.99615 5.6095 5.63881 5.16717 5.63881V5.93881C5.44578 5.93881 5.67083 6.16379 5.67083 6.43796H5.97083ZM5.97083 6.78358V6.43796H5.67083V6.78358H5.97083ZM5.16717 7.58274C5.6095 7.58274 5.97083 7.22539 5.97083 6.78358H5.67083C5.67083 7.05775 5.44578 7.28273 5.16717 7.28273V7.58274ZM2.37792 7.58274H5.16717V7.28273H2.37792V7.58274ZM2.37792 14.5656C2.09931 14.5656 1.87426 14.3406 1.87426 14.0665H1.57426C1.57426 14.5083 1.93558 14.8656 2.37792 14.8656V14.5656ZM5.16717 14.5656H2.37792V14.8656H5.16717V14.5656ZM5.67083 14.0665C5.67083 14.3406 5.44578 14.5656 5.16717 14.5656V14.8656C5.6095 14.8656 5.97083 14.5083 5.97083 14.0665H5.67083ZM5.67083 13.7208V14.0665H5.97083V13.7208H5.67083ZM5.16717 13.2217C5.44578 13.2217 5.67083 13.4467 5.67083 13.7208H5.97083C5.97083 13.279 5.6095 12.9217 5.16717 12.9217V13.2217ZM2.37792 13.2217H5.16717V12.9217H2.37792V13.2217ZM1.87426 13.7208C1.87426 13.4467 2.09931 13.2217 2.37792 13.2217V12.9217C1.93558 12.9217 1.57426 13.279 1.57426 13.7208H1.87426ZM1.87426 14.0665V13.7208H1.57426V14.0665H1.87426ZM1.57426 21.349C1.57426 21.7908 1.93558 22.1482 2.37792 22.1482V21.8482C2.09931 21.8482 1.87426 21.6232 1.87426 21.349H1.57426ZM1.57426 21.0034V21.349H1.87426V21.0034H1.57426ZM2.37792 20.2042C1.93558 20.2042 1.57426 20.5616 1.57426 21.0034H1.87426C1.87426 20.7292 2.09931 20.5042 2.37792 20.5042V20.2042ZM5.16717 20.2042H2.37792V20.5042H5.16717V20.2042ZM5.97083 21.0034C5.97083 20.5616 5.6095 20.2042 5.16717 20.2042V20.5042C5.44578 20.5042 5.67083 20.7292 5.67083 21.0034H5.97083ZM5.97083 21.349V21.0034H5.67083V21.349H5.97083ZM5.16717 22.1482C5.6095 22.1482 5.97083 21.7908 5.97083 21.349H5.67083C5.67083 21.6232 5.44578 21.8482 5.16717 21.8482V22.1482ZM2.37792 22.1482H5.16717V21.8482H2.37792V22.1482ZM4.57013 25.4644V23.2841H4.27013V25.4644H4.57013ZM4.78527 25.6771C4.66897 25.677 4.57013 25.577 4.57013 25.4644H4.27013C4.27013 25.7446 4.50508 25.9767 4.78483 25.9771L4.78527 25.6771ZM25.4502 25.6771H4.78505V25.9771H25.4502V25.6771ZM25.6651 25.4647C25.6651 25.5774 25.5663 25.6771 25.4502 25.6771V25.9771C25.7302 25.9771 25.9651 25.7448 25.9651 25.4647H25.6651ZM25.6651 2.32254V25.4647H25.9651V2.32254H25.6651ZM25.4502 2.11013C25.5661 2.11013 25.6651 2.20999 25.6651 2.32254H25.9651C25.9651 2.04236 25.7298 1.81013 25.4502 1.81013V2.11013ZM4.78505 2.11013H25.4502V1.81013H4.78505V2.11013ZM4.57013 2.32254C4.57013 2.20999 4.66918 2.11013 4.78505 2.11013V1.81013C4.50546 1.81013 4.27013 2.04236 4.27013 2.32254H4.57013ZM4.57013 4.50316V2.32254H4.27013V4.50316H4.57013ZM5.16746 4.35316H4.42013V4.65316H5.16746V4.35316ZM7.2657 6.43796C7.2657 5.28692 6.32363 4.35316 5.16746 4.35316V4.65316C6.15993 4.65316 6.9657 5.45459 6.9657 6.43796H7.2657ZM7.2657 6.78358V6.43796H6.9657V6.78358H7.2657ZM5.16746 8.86838C6.32395 8.86838 7.2657 7.93429 7.2657 6.78358H6.9657C6.9657 7.76668 6.1602 8.56838 5.16746 8.56838V8.86838ZM4.42013 8.86838H5.16746V8.56838H4.42013V8.86838ZM4.57013 11.786V8.71838H4.27013V11.786H4.57013ZM5.16746 11.636H4.42013V11.936H5.16746V11.636ZM7.2657 13.7208C7.2657 12.5698 6.32363 11.636 5.16746 11.636V11.936C6.15993 11.936 6.9657 12.7375 6.9657 13.7208H7.2657ZM7.2657 14.0665V13.7208H6.9657V14.0665H7.2657ZM5.16746 16.1512C6.32395 16.1512 7.2657 15.2172 7.2657 14.0665H6.9657C6.9657 15.0496 6.1602 15.8512 5.16746 15.8512V16.1512ZM4.42013 16.1512H5.16746V15.8512H4.42013V16.1512ZM4.57013 19.0689V16.0012H4.27013V19.0689H4.57013ZM5.16746 18.9189H4.42013V19.2189H5.16746V18.9189ZM7.2657 21.0037C7.2657 19.8527 6.32363 18.9189 5.16746 18.9189V19.2189C6.15993 19.2189 6.9657 20.0203 6.9657 21.0037H7.2657ZM7.2657 21.3493V21.0037H6.9657V21.3493H7.2657ZM5.16746 23.4341C6.32395 23.4341 7.2657 22.5 7.2657 21.3493H6.9657C6.9657 22.3324 6.1602 23.1341 5.16746 23.1341V23.4341ZM4.42013 23.4341H5.16746V23.1341H4.42013V23.4341Z" fill="#9B9B9B"/>
<path fill-rule="evenodd" clip-rule="evenodd" d="M19.0991 10.5951C19.0991 12.4825 17.5531 14.0175 15.6529 14.0175C13.7527 14.0175 12.207 12.4825 12.207 10.5951C12.207 8.70773 13.753 7.17273 15.6529 7.17273C17.5534 7.17273 19.0991 8.70773 19.0991 10.5951ZM17.8042 10.5954C17.8042 9.41753 16.8393 8.45896 15.6529 8.45896C14.4668 8.45896 13.5019 9.41753 13.5019 10.5954C13.5019 11.7733 14.4668 12.7319 15.6529 12.7319C16.839 12.7319 17.8042 11.7733 17.8042 10.5954Z" fill="#9B9B9B"/>
<path d="M15.6529 14.1675C17.635 14.1675 19.2491 12.5664 19.2491 10.5951H18.9491C18.9491 12.3987 17.4713 13.8675 15.6529 13.8675V14.1675ZM12.057 10.5951C12.057 12.5663 13.6708 14.1675 15.6529 14.1675V13.8675C13.8346 13.8675 12.357 12.3987 12.357 10.5951H12.057ZM15.6529 7.02273C13.6711 7.02273 12.057 8.62391 12.057 10.5951H12.357C12.357 8.79155 13.8349 7.32273 15.6529 7.32273V7.02273ZM19.2491 10.5951C19.2491 8.62391 17.6353 7.02273 15.6529 7.02273V7.32273C17.4715 7.32273 18.9491 8.79155 18.9491 10.5951H19.2491ZM15.6529 8.60896C16.7574 8.60896 17.6542 9.50134 17.6542 10.5954H17.9542C17.9542 9.33372 16.9211 8.30896 15.6529 8.30896V8.60896ZM13.6519 10.5954C13.6519 9.50132 14.5487 8.60896 15.6529 8.60896V8.30896C14.3849 8.30896 13.3519 9.33374 13.3519 10.5954H13.6519ZM15.6529 12.5819C14.5487 12.5819 13.6519 11.6895 13.6519 10.5954H13.3519C13.3519 11.8571 14.3849 12.8819 15.6529 12.8819V12.5819ZM17.6542 10.5954C17.6542 11.6895 16.7571 12.5819 15.6529 12.5819V12.8819C16.9208 12.8819 17.9542 11.8571 17.9542 10.5954H17.6542Z" fill="#9B9B9B"/>
<path fill-rule="evenodd" clip-rule="evenodd" d="M14.5171 14.0343H16.7876C18.9341 14.0343 20.6805 15.7686 20.6805 17.9004V19.9709C20.6805 20.3262 20.3906 20.6138 20.0331 20.6138H11.2719C10.9141 20.6138 10.6245 20.3259 10.6245 19.9709V17.9004C10.6245 15.7686 12.3709 14.0343 14.5171 14.0343ZM11.9194 19.3279H19.3856V17.9004C19.3856 16.4778 18.22 15.3202 16.7876 15.3202H14.5171C13.0847 15.3202 11.9194 16.4778 11.9194 17.9004V19.3279Z" fill="#9B9B9B"/>
<path d="M19.3856 19.3279V19.4779H19.5356V19.3279H19.3856ZM11.9194 19.3279H11.7694V19.4779H11.9194V19.3279ZM16.7876 13.8843H14.5171V14.1843H16.7876V13.8843ZM20.8305 17.9004C20.8305 15.6848 19.016 13.8843 16.7876 13.8843V14.1843C18.8523 14.1843 20.5305 15.8524 20.5305 17.9004H20.8305ZM20.8305 19.9709V17.9004H20.5305V19.9709H20.8305ZM20.0331 20.7638C20.4724 20.7638 20.8305 20.4101 20.8305 19.9709H20.5305C20.5305 20.2424 20.3088 20.4638 20.0331 20.4638V20.7638ZM11.2719 20.7638H20.0331V20.4638H11.2719V20.7638ZM10.4745 19.9709C10.4745 20.4097 10.8322 20.7638 11.2719 20.7638V20.4638C10.996 20.4638 10.7745 20.2421 10.7745 19.9709H10.4745ZM10.4745 17.9004V19.9709H10.7745V17.9004H10.4745ZM14.5171 13.8843C12.289 13.8843 10.4745 15.6848 10.4745 17.9004H10.7745C10.7745 15.8524 12.4527 14.1843 14.5171 14.1843V13.8843ZM19.3856 19.1779H11.9194V19.4779H19.3856V19.1779ZM19.2356 17.9004V19.3279H19.5356V17.9004H19.2356ZM16.7876 15.4702C18.1381 15.4702 19.2356 16.5616 19.2356 17.9004H19.5356C19.5356 16.394 18.3019 15.1702 16.7876 15.1702V15.4702ZM14.5171 15.4702H16.7876V15.1702H14.5171V15.4702ZM12.0694 17.9004C12.0694 16.5616 13.1666 15.4702 14.5171 15.4702V15.1702C13.0028 15.1702 11.7694 16.394 11.7694 17.9004H12.0694ZM12.0694 19.3279V17.9004H11.7694V19.3279H12.0694Z" fill="#9B9B9B"/>
</g>
</svg>
