<svg width="53" height="52" viewBox="0 0 53 52" fill="none" xmlns="http://www.w3.org/2000/svg">
<path fill-rule="evenodd" clip-rule="evenodd" d="M33.9806 21.4761H44.4594C47.064 21.4761 52.8183 23.1327 52.8183 25.8541C52.8183 28.5756 47.0034 30.2322 44.3989 30.2322H33.8594L32.5874 32.3029C33.0114 32.717 33.2537 33.1903 33.2537 33.7228V36.3851C33.2537 37.45 32.2846 38.2783 31.1337 38.2783H29.0743L22.896 48.5135C21.9269 50.525 20.0491 51.7674 18.0503 51.7674H14.7189L19.6251 36.8584C18.8983 36.3851 18.3531 35.8526 18.3531 35.1427V34.7286C18.4137 33.782 19.3223 33.0128 21.0789 32.4212L21.8057 30.2913H20.776H17.5051C16.7783 30.2913 16.0515 30.2322 15.3246 30.173L15.3246 30.173L8.41943 29.3447L4.17943 37.0359H0V14.8499H4.30057L8.54057 22.541L15.4457 21.7127C16.1726 21.6536 16.8994 21.5944 17.6263 21.5944H20.8971H21.9269L21.0789 18.9913C19.6857 18.4588 18.4743 17.6897 18.4743 16.6247V16.2106C18.4743 15.619 18.8983 15.0865 19.6251 14.6132L14.7794 0H18.1109C20.1097 0 21.9269 1.30158 22.9566 3.31312L28.9531 13.2525H31.2549C31.8 13.2525 32.2846 13.43 32.7086 13.7849C33.1326 14.1991 33.3749 14.6724 33.3749 15.2048V17.8672C33.3749 18.4588 33.072 18.9321 32.648 19.2871L33.9806 21.4761ZM33.072 28.7531H44.4594C47.064 28.7531 51.4857 27.0966 51.4857 25.8541C51.4857 24.6117 47.1246 22.9552 44.5806 22.9552H33.1326L21.624 3.96391C20.8366 2.42567 19.504 1.47907 18.1109 1.47907H16.8994L23.9863 23.0143H20.8366H17.5657C16.8994 23.0143 16.2331 23.0735 15.5669 23.1327L7.57143 24.0793L3.27086 16.2698H1.57486V35.4385H3.27086L7.57143 27.629L15.5669 28.6348C16.2331 28.694 16.8994 28.7531 17.5657 28.7531H20.8366H23.9863L16.8994 50.2292H18.1109C19.504 50.2292 20.8366 49.3418 21.5634 47.8035L33.072 28.7531ZM31.1943 36.7993H29.9829L31.8 33.782V36.3851C31.8 36.6218 31.4971 36.8584 31.1943 36.7993ZM19.928 34.7877V35.1427C19.9886 35.2019 20.0491 35.261 20.1097 35.3793L20.4731 34.3144C20.1703 34.4919 19.9886 34.6694 19.928 34.7877ZM19.928 16.5656V16.2106C19.928 16.174 19.9511 16.1601 19.9831 16.1408C20.0029 16.1288 20.026 16.1149 20.0491 16.0923L20.352 16.9206C20.1703 16.8022 19.9886 16.6248 19.928 16.5656L19.928 16.5656ZM31.8 17.808V15.1457C31.8 15.0764 31.7792 15.0273 31.762 14.9867C31.7498 14.958 31.7394 14.9335 31.7394 14.909C31.6183 14.7907 31.4366 14.7315 31.2549 14.7315H29.9223L31.8 17.8672V17.808Z" fill="#4FC1E9"/>
</svg>
