<svg width="20" height="20" viewBox="0 0 20 20" fill="none" xmlns="http://www.w3.org/2000/svg">
<path fill-rule="evenodd" clip-rule="evenodd" d="M12.867 8.29714H16.8349C17.8211 8.29714 20 8.93714 20 9.98857C20 11.04 17.7982 11.68 16.8119 11.68H12.8211L12.3394 12.48C12.5 12.64 12.5917 12.8229 12.5917 13.0286V14.0571C12.5917 14.4686 12.2248 14.7886 11.789 14.7886H11.0092L8.66972 18.7429C8.30275 19.52 7.59174 20 6.83486 20H5.57339L7.43119 14.24C7.15596 14.0571 6.94954 13.8514 6.94954 13.5771V13.4171C6.97248 13.0514 7.31651 12.7543 7.98165 12.5257L8.25688 11.7029H7.86697H6.62844C6.35322 11.7029 6.07801 11.68 5.80279 11.6571L5.80275 11.6571L3.18807 11.3371L1.58257 14.3086H0V5.73714H1.62844L3.23394 8.70857L5.84862 8.38857L5.84866 8.38857C6.12388 8.36571 6.39909 8.34286 6.67431 8.34286H7.91284H8.30275L7.98165 7.33714C7.45413 7.13143 6.99541 6.83429 6.99541 6.42286V6.26286C6.99541 6.03429 7.15596 5.82857 7.43119 5.64571L5.59633 0H6.8578C7.61468 0 8.30275 0.502857 8.69266 1.28L10.9633 5.12H11.8349C12.0413 5.12 12.2248 5.18857 12.3853 5.32571C12.5459 5.48571 12.6376 5.66857 12.6376 5.87429V6.90286C12.6376 7.13143 12.5229 7.31429 12.3624 7.45143L12.867 8.29714ZM12.5229 11.1086H16.8349C17.8211 11.1086 19.4954 10.4686 19.4954 9.98857C19.4954 9.50857 17.844 8.86857 16.8807 8.86857H12.5459L8.18807 1.53143C7.88991 0.937143 7.38532 0.571429 6.8578 0.571429H6.39908L9.08257 8.89143H7.88991H6.65138C6.39909 8.89143 6.14681 8.91428 5.89453 8.93714L5.8945 8.93714L2.86697 9.30286L1.23853 6.28571H0.59633V13.6914H1.23853L2.86697 10.6743L5.8945 11.0629C6.14679 11.0857 6.39908 11.1086 6.65138 11.1086H7.88991H9.08257L6.39908 19.4057H6.8578C7.38532 19.4057 7.88991 19.0629 8.16514 18.4686L12.5229 11.1086ZM11.8119 14.2171H11.3532L12.0413 13.0514V14.0571C12.0413 14.1486 11.9266 14.24 11.8119 14.2171ZM7.54587 13.44V13.5771C7.56881 13.6 7.59174 13.6229 7.61468 13.6686L7.75229 13.2571C7.63761 13.3257 7.56881 13.3943 7.54587 13.44ZM7.54587 6.4V6.26286C7.54587 6.24873 7.55463 6.24334 7.56674 6.23588C7.57422 6.23127 7.58298 6.22587 7.59174 6.21714L7.70642 6.53714C7.63761 6.49143 7.56881 6.42286 7.54587 6.4ZM12.0413 6.88V5.85143C12.0413 5.82465 12.0334 5.80571 12.0269 5.79003C12.0223 5.77894 12.0183 5.76947 12.0183 5.76C11.9725 5.71429 11.9037 5.69143 11.8349 5.69143H11.3303L12.0413 6.90286V6.88Z" fill="white"/>
</svg>
