<svg width="46" height="38" viewBox="0 0 46 38" fill="none" xmlns="http://www.w3.org/2000/svg">
<path d="M14.1882 0.699495C11.2155 0.699495 8.7999 2.91737 8.7999 5.62474V14.8015H4.07725C2.15459 14.8015 0.599121 16.2116 0.599121 17.953V29.0046C0.599121 30.746 2.15459 32.1609 4.07725 32.1609H5.30147L5.62647 36.5402C5.646 36.9741 6.06865 37.3178 6.56162 37.3006C6.80068 37.2924 7.02803 37.2009 7.19053 37.0449L12.5827 32.1609H23.5312C25.4538 32.1609 27.0202 30.7474 27.0202 29.0046V26.6581L32.7429 32.4544C32.9812 32.6971 33.364 32.7899 33.7085 32.6909H33.7124L33.7147 32.6896C34.0585 32.5844 34.3022 32.3101 34.3327 31.9904V31.989L35.0483 24.6114H40.0249C42.9952 24.6114 45.3999 22.4128 45.3999 19.7068V5.62337C45.3999 2.91668 42.9976 0.69812 40.0249 0.69812H40.0233L14.1882 0.699495ZM14.1882 2.29793H40.0241C41.9835 2.29793 43.5851 3.77949 43.5851 5.62612V19.7082C43.5851 21.5548 41.9858 23.0137 40.0241 23.0137H34.2077C33.739 23.0212 33.3483 23.3451 33.3101 23.7569L32.7054 29.9787L26.1171 23.3004C25.9468 23.1237 25.6983 23.0206 25.4358 23.0157H14.1882C12.2272 23.0157 10.6163 21.5548 10.6163 19.7089V5.62681C10.6163 3.78087 12.2296 2.29862 14.1882 2.29862V2.29793ZM4.07725 16.3999H8.80068V19.7082C8.80068 22.4156 11.2187 24.6128 14.189 24.6128H25.0116L25.203 24.8149V29.0046C25.203 29.8859 24.4476 30.5631 23.5312 30.5631H12.1913C11.946 30.5686 11.7132 30.6614 11.5452 30.8189L7.30615 34.6565L7.0585 31.318C7.02803 30.9007 6.6335 30.5693 6.1585 30.5631H4.07803C3.16084 30.5631 2.41553 29.888 2.41553 29.0046V17.953C2.41553 17.0696 3.16084 16.3999 4.07803 16.3999H4.07725Z" fill="#9B9B9B"/>
</svg>
