<svg width="24" height="22" viewBox="0 0 24 22" fill="none" xmlns="http://www.w3.org/2000/svg">
<g opacity="0.77437">
<path fill-rule="evenodd" clip-rule="evenodd" d="M21.12 3.78459C22.6613 3.78459 23.9107 5.11564 23.9107 6.75757V18.5573C23.9107 20.1992 22.6613 21.5303 21.12 21.5303H2.7907C2.05056 21.5303 1.34073 21.217 0.817376 20.6595C0.294019 20.102 0 19.3458 0 18.5573V6.75757C0 5.11564 1.24944 3.78459 2.7907 3.78459H6.1786L6.5386 2.25054C6.84965 0.927773 7.96555 3.58479e-05 9.24558 0H14.6651C15.9452 3.58479e-05 17.061 0.927773 17.3721 2.25054L17.7321 3.78459H21.12ZM21.12 20.3411C22.0448 20.3411 22.7944 19.5425 22.7944 18.5573V6.75459C22.7944 5.76944 22.0448 4.97081 21.12 4.97081H17.2967C17.0411 4.97094 16.818 4.78597 16.7553 4.52189L16.2893 2.53892C16.1025 1.74549 15.433 1.18914 14.6651 1.18919H9.24558C8.47772 1.18914 7.80824 1.74549 7.6214 2.53892L7.15535 4.52189C7.09379 4.78715 6.87045 4.97357 6.61395 4.97378H2.7907C1.86594 4.97378 1.11628 5.77241 1.11628 6.75757V18.5573C1.11628 19.5425 1.86594 20.3411 2.7907 20.3411H21.12Z" fill="black"/>
<path fill-rule="evenodd" clip-rule="evenodd" d="M6.09473 12.0168C6.09473 8.56875 8.71855 5.77356 11.9552 5.77356C15.1874 5.78498 17.8049 8.5735 17.8157 12.0168C17.8157 15.4649 15.1918 18.26 11.9552 18.26C8.71855 18.26 6.09473 15.4649 6.09473 12.0168ZM7.21101 12.0436C7.21101 14.8348 9.33505 17.0976 11.9552 17.0976C14.5715 17.0878 16.6902 14.8308 16.6994 12.0436C16.6994 9.25228 14.5753 6.98951 11.9552 6.98951C9.33505 6.98951 7.21101 9.25228 7.21101 12.0436Z" fill="black"/>
</g>
</svg>
