<svg width="17" height="16" viewBox="0 0 17 16" fill="none" xmlns="http://www.w3.org/2000/svg">
<path fill-rule="evenodd" clip-rule="evenodd" d="M14.96 2.75243C16.0517 2.75243 16.9367 3.72047 16.9367 4.91459V13.4962C16.9367 14.6903 16.0517 15.6584 14.96 15.6584H1.97674C1.45248 15.6584 0.949686 15.4306 0.578975 15.0251C0.208264 14.6196 0 14.0697 0 13.4962V4.91459C0 3.72047 0.885018 2.75243 1.97674 2.75243H4.37651L4.63151 1.63676C4.85184 0.674744 5.64226 2.60712e-05 6.54895 0H10.3878C11.2945 2.60712e-05 12.0849 0.674744 12.3052 1.63676L12.5602 2.75243H14.96ZM14.96 14.7935C15.615 14.7935 16.146 14.2127 16.146 13.4962V4.91243C16.146 4.19595 15.615 3.61514 14.96 3.61514H12.2519C12.0708 3.61523 11.9127 3.48071 11.8684 3.28865L11.5383 1.84649C11.4059 1.26945 10.9317 0.864831 10.3878 0.864865H6.54895C6.00505 0.864831 5.53084 1.26945 5.39849 1.84649L5.06837 3.28865C5.02477 3.48157 4.86657 3.61714 4.68488 3.6173H1.97674C1.32171 3.6173 0.790698 4.19812 0.790698 4.91459V13.4962C0.790698 14.2127 1.32171 14.7935 1.97674 14.7935H14.96Z" fill="white"/>
<path fill-rule="evenodd" clip-rule="evenodd" d="M4.31738 8.73952C4.31738 6.23184 6.17592 4.19897 8.46855 4.19897C10.758 4.20728 12.6121 6.23529 12.6197 8.73952C12.6197 11.2472 10.7612 13.2801 8.46855 13.2801C6.17592 13.2801 4.31738 11.2472 4.31738 8.73952ZM5.10808 8.75897C5.10808 10.789 6.61261 12.4347 8.46855 12.4347C10.3218 12.4275 11.8225 10.786 11.829 8.75897C11.829 6.72896 10.3245 5.0833 8.46855 5.0833C6.61261 5.0833 5.10808 6.72896 5.10808 8.75897Z" fill="white"/>
</svg>
