<svg width="59" height="52" viewBox="0 0 59 52" fill="none" xmlns="http://www.w3.org/2000/svg">
<g opacity="0.535856">
<path fill-rule="evenodd" clip-rule="evenodd" d="M51.92 9.11743C55.7089 9.11743 58.7805 12.324 58.7805 16.2796V44.7062C58.7805 48.6618 55.7089 51.8684 51.92 51.8684H6.86047C5.04096 51.8684 3.29597 51.1138 2.00938 49.7706C0.722797 48.4275 0 46.6057 0 44.7062V16.2796C0 12.324 3.07153 9.11743 6.86047 9.11743H15.1891L16.0741 5.42176C16.8387 2.23509 19.582 8.63609e-05 22.7287 0H36.0517C39.1985 8.63609e-05 41.9417 2.23509 42.7064 5.42176L43.5914 9.11743H51.92ZM51.92 49.0035C54.1934 49.0035 56.0363 47.0795 56.0363 44.7062V16.2724C56.0363 13.8991 54.1934 11.9751 51.92 11.9751H42.5212C41.8926 11.9754 41.3442 11.5298 41.1902 10.8936L40.0445 6.11649C39.5852 4.20505 37.9394 2.86475 36.0517 2.86486H22.7287C20.8411 2.86475 19.1953 4.20505 18.7359 6.11649L17.5902 10.8936C17.4389 11.5327 16.8899 11.9818 16.2593 11.9823H6.86047C4.58711 11.9823 2.74419 13.9063 2.74419 16.2796V44.7062C2.74419 47.0795 4.58711 49.0035 6.86047 49.0035H51.92Z" fill="#FC6E51"/>
<path fill-rule="evenodd" clip-rule="evenodd" d="M14.9834 28.9495C14.9834 20.6428 21.4336 13.9089 29.3904 13.9089C37.3362 13.9364 43.771 20.6542 43.7974 28.9495C43.7974 37.2561 37.3471 43.99 29.3904 43.99C21.4336 43.99 14.9834 37.2561 14.9834 28.9495ZM17.7276 29.0139C17.7276 35.7384 22.9492 41.1896 29.3904 41.1896C35.8222 41.166 41.0306 35.7286 41.0532 29.0139C41.0532 22.2895 35.8316 16.8383 29.3904 16.8383C22.9492 16.8383 17.7276 22.2895 17.7276 29.0139Z" fill="#FC6E51"/>
</g>
</svg>
