<svg width="31" height="28" viewBox="0 0 31 28" fill="none" xmlns="http://www.w3.org/2000/svg">
<g opacity="0.668377">
<path fill-rule="evenodd" clip-rule="evenodd" d="M9.01758 23.9258C9.01758 22.1817 10.4198 20.7627 12.1434 20.7627C13.8669 20.7627 15.2691 22.1817 15.2691 23.9258C15.2691 25.6699 13.8669 27.0888 12.1434 27.0888C10.4198 27.0888 9.01758 25.6699 9.01758 23.9258ZM10.0149 23.9259C10.0149 25.1133 10.9696 26.0794 12.1431 26.0794C13.3165 26.0794 14.2712 25.1133 14.2712 23.9259C14.2712 22.7383 13.3165 21.7723 12.1431 21.7723C10.9696 21.7723 10.0149 22.7383 10.0149 23.9259Z" fill="black"/>
<path fill-rule="evenodd" clip-rule="evenodd" d="M21.7979 23.9258C21.7979 22.1817 23.2001 20.7627 24.9236 20.7627C26.6472 20.7627 28.0494 22.1817 28.0494 23.9258C28.0494 25.6699 26.6472 27.0888 24.9236 27.0888C23.2001 27.0888 21.7979 25.6699 21.7979 23.9258ZM22.7957 23.9259C22.7957 25.1133 23.7503 26.0794 24.9238 26.0794C26.0973 26.0794 27.052 25.1133 27.052 23.9259C27.052 22.7383 26.0973 21.7723 24.9238 21.7723C23.7503 21.7723 22.7957 22.7383 22.7957 23.9259Z" fill="black"/>
<path fill-rule="evenodd" clip-rule="evenodd" d="M30.3469 2.56144C30.5176 2.56144 30.6765 2.64974 30.768 2.79558C30.8595 2.94142 30.871 3.12443 30.7984 3.28083L24.8091 16.1834C24.7269 16.3604 24.5509 16.4735 24.3576 16.4735H12.379C12.1856 16.4735 12.0097 16.3604 11.9275 16.1834L6.02095 3.45906L1.15608 1.44912C0.901044 1.34378 0.778709 1.04915 0.882847 0.791065C0.986914 0.532913 1.27789 0.409119 1.53317 0.514534L6.48757 2.56144H30.3469ZM12.696 15.464H24.0411L29.5617 3.57095H7.17529L12.696 15.464Z" fill="black"/>
</g>
</svg>
