<svg width="21" height="19" viewBox="0 0 21 19" fill="none" xmlns="http://www.w3.org/2000/svg">
<path fill-rule="evenodd" clip-rule="evenodd" d="M5.84277 16.6226C5.84277 15.3978 6.79918 14.4014 7.97476 14.4014C9.15032 14.4014 10.1067 15.3978 10.1067 16.6226C10.1067 17.8473 9.15032 18.8437 7.97476 18.8437C6.79918 18.8437 5.84277 17.8473 5.84277 16.6226ZM6.5232 16.6226C6.5232 17.4564 7.17437 18.1348 7.97476 18.1348C8.77513 18.1348 9.4263 17.4564 9.4263 16.6226C9.4263 15.7887 8.77513 15.1103 7.97476 15.1103C7.17437 15.1103 6.5232 15.7887 6.5232 16.6226Z" fill="white"/>
<path fill-rule="evenodd" clip-rule="evenodd" d="M14.5601 16.6226C14.5601 15.3978 15.5165 14.4014 16.692 14.4014C17.8676 14.4014 18.824 15.3978 18.824 16.6226C18.824 17.8473 17.8676 18.8437 16.692 18.8437C15.5165 18.8437 14.5601 17.8473 14.5601 16.6226ZM15.2405 16.6226C15.2405 17.4564 15.8916 18.1348 16.692 18.1348C17.4924 18.1348 18.1436 17.4564 18.1436 16.6226C18.1436 15.7887 17.4924 15.1103 16.692 15.1103C15.8916 15.1103 15.2405 15.7887 15.2405 16.6226Z" fill="white"/>
<path fill-rule="evenodd" clip-rule="evenodd" d="M20.3908 1.62004C20.5072 1.62004 20.6155 1.68205 20.678 1.78446C20.7404 1.88687 20.7482 2.01539 20.6987 2.12522L16.6136 11.1857C16.5576 11.31 16.4375 11.3894 16.3057 11.3894H8.13547C8.00359 11.3894 7.88361 11.31 7.82753 11.1857L3.7989 2.25037L0.48074 0.838946C0.306789 0.76497 0.223349 0.558075 0.294377 0.376844C0.365358 0.195564 0.563824 0.108632 0.737942 0.182658L4.11716 1.62004H20.3908ZM8.35154 10.6805H16.0896L19.855 2.32895H4.58607L8.35154 10.6805Z" fill="white"/>
</svg>
