<svg width="66" height="58" viewBox="0 0 66 58" fill="none" xmlns="http://www.w3.org/2000/svg">
<g opacity="0.668377">
<path fill-rule="evenodd" clip-rule="evenodd" d="M18.3633 50.7427C18.3633 47.004 21.3691 43.9622 25.0638 43.9622C28.7584 43.9622 31.7643 47.004 31.7643 50.7427C31.7643 54.4814 28.7584 57.5231 25.0638 57.5231C21.3691 57.5231 18.3633 54.4814 18.3633 50.7427ZM20.5018 50.7427C20.5018 53.2881 22.5483 55.359 25.0638 55.359C27.5793 55.359 29.6258 53.2881 29.6258 50.7427C29.6258 48.1971 27.5793 46.1262 25.0638 46.1262C22.5483 46.1262 20.5018 48.1971 20.5018 50.7427Z" fill="#4FC1E9"/>
<path fill-rule="evenodd" clip-rule="evenodd" d="M45.7598 50.7427C45.7598 47.004 48.7657 43.9622 52.4603 43.9622C56.1549 43.9622 59.1607 47.004 59.1607 50.7427C59.1607 54.4814 56.1549 57.5231 52.4603 57.5231C48.7657 57.5231 45.7598 54.4814 45.7598 50.7427ZM47.8983 50.7427C47.8983 53.2881 49.9447 55.359 52.4603 55.359C54.9757 55.359 57.0222 53.2881 57.0222 50.7427C57.0222 48.1971 54.9757 46.1262 52.4603 46.1262C49.9447 46.1262 47.8983 48.1971 47.8983 50.7427Z" fill="#4FC1E9"/>
<path fill-rule="evenodd" clip-rule="evenodd" d="M64.0854 4.94535C64.4513 4.94535 64.7918 5.13465 64.988 5.44726C65.1841 5.75988 65.2088 6.1522 65.0532 6.48746L52.2143 34.1457C52.0382 34.5252 51.6609 34.7676 51.2465 34.7676H25.5688C25.1543 34.7676 24.7772 34.5252 24.6009 34.1457L11.9395 6.86951L1.51104 2.56095C0.964333 2.33513 0.702093 1.70355 0.925325 1.15032C1.14841 0.596939 1.77216 0.331569 2.31939 0.557541L12.9398 4.94535H64.0854ZM26.2478 32.6036H50.5675L62.4017 7.10937H14.4135L26.2478 32.6036Z" fill="#4FC1E9"/>
</g>
</svg>
