<svg xmlns="http://www.w3.org/2000/svg" width="58" height="63" fill="none" style=""><rect id="backgroundrect" width="100%" height="100%" x="0" y="0" fill="none" stroke="none"/>



<g class="currentLayer" style=""><title>Layer 1</title><path d="M35.439499591064454,9.125499563598634 H22.748099591064452 C22.19539959106445,9.125499563598634 21.748099591064452,9.573199563598632 21.748099591064452,10.125499563598634 V14.648899563598633 C21.748099591064452,15.201199563598632 22.19539959106445,15.648899563598633 22.748099591064452,15.648899563598633 H35.439499591064454 C35.992199591064455,15.648899563598633 36.439499591064454,15.201199563598632 36.439499591064454,14.648899563598633 V10.125499563598634 C36.439499591064454,9.573199563598632 35.992199591064455,9.125499563598634 35.439499591064454,9.125499563598634 zM34.439499591064454,13.648899563598633 H23.748099591064452 V11.125499563598634 H34.439499591064454 V13.648899563598633 z" fill="#4cef98" id="svg_1" class="selected" fill-opacity="1"/><path d="M36.439499591064454,0.9999995635986334 C36.439499591064454,0.4477995635986325 35.992199591064455,-4.364013665991706e-7 35.439499591064454,-4.364013665991706e-7 H22.748099591064452 C22.19539959106445,-4.364013665991706e-7 21.748099591064452,0.4477995635986325 21.748099591064452,0.9999995635986334 V5.523399563598634 C21.748099591064452,6.075699563598633 22.19539959106445,6.523399563598634 22.748099591064452,6.523399563598634 H35.439499591064454 C35.992199591064455,6.523399563598634 36.439499591064454,6.075699563598633 36.439499591064454,5.523399563598634 V0.9999995635986334 zM34.439499591064454,4.523399563598634 H23.748099591064452 V1.9999995635986334 H34.439499591064454 V4.523399563598634 z" fill="#4cef98" id="svg_2" class="selected" fill-opacity="1"/><path d="M0,54.3696C0,58.9629 3.7374,62.7002 8.3301,62.7002L49.8575,62.7002C54.4502,62.7002 58.1876,58.9629 58.1876,54.3696C58.1876,49.7764 54.4502,46.0391 49.8575,46.0391L35.0207,46.0391L43.5752,32.4785C43.7696,32.1704 43.7813,31.7808 43.6055,31.4619C43.4297,31.1431 43.0938,30.9448 42.7295,30.9448L36.4395,30.9448L36.4395,18.5483C36.4395,17.9961 35.9922,17.5483 35.4395,17.5483L22.7481,17.5483C22.1954,17.5483 21.7481,17.9961 21.7481,18.5483L21.7481,30.9448L15.4581,30.9448C15.0938,30.9448 14.7579,31.1431 14.5821,31.4619C14.4063,31.7808 14.418,32.1704 14.6124,32.4785L23.1669,46.0391L8.3301,46.0391C3.7374,46.0391 0,49.7764 0,54.3696zM17.2715,32.9448L22.7481,32.9448C23.3008,32.9448 23.7481,32.4971 23.7481,31.9448L23.7481,19.5483L34.4395,19.5483L34.4395,31.9448C34.4395,32.4971 34.8868,32.9448 35.4395,32.9448L40.9161,32.9448L29.0938,51.686L17.2715,32.9448zM24.4286,48.0391L28.2481,54.0938C28.4307,54.3838 28.75,54.5601 29.0938,54.5601C29.4376,54.5601 29.7569,54.3838 29.9395,54.0938L33.759,48.0391L49.8575,48.0391C53.3477,48.0391 56.1876,50.8789 56.1876,54.3696C56.1876,57.8604 53.3477,60.7002 49.8575,60.7002L8.3301,60.7002C4.8399,60.7002 2,57.8604 2,54.3696C2,50.8789 4.8399,48.0391 8.3301,48.0391L24.4286,48.0391z" fill="#4cef98" id="svg_3" class="selected" fill-opacity="1"/></g></svg>