<svg xmlns="http://www.w3.org/2000/svg" width="65" height="82" fill="none" style=""><rect id="backgroundrect" width="100%" height="100%" x="0" y="0" fill="none" stroke="none"/>

<defs>
<clipPath id="clip0">
<rect width="65" height="81.25" fill="white" id="svg_1"/>
</clipPath>
</defs>
<g class="currentLayer" style=""><title>Layer 1</title><g clip-path="url(#clip0)" id="svg_2" class="selected" fill="#efab51" fill-opacity="1">
<path d="M49.7999 32.7999L49.6999 33.4999C49.2999 36.7999 47.8999 39.8999 45.6999 42.4999C42.0999 46.6999 36.7999 48.8999 31.1999 48.5999H30.4999L27.3999 63.3999L28.1999 63.4999C29.5999 63.6999 30.8999 63.7999 32.2999 63.7999C41.8999 63.7999 50.8999 59.5999 56.9999 52.3999C61.4999 47.0999 64.0999 40.6999 64.5999 33.7999L64.6999 32.9999L49.7999 32.7999ZM54.3999 34.2999L60.9999 43.1999C60.2999 44.7999 59.4999 46.2999 58.5999 47.7999L50.4999 36.8999C50.7999 35.9999 50.9999 35.0999 51.1999 34.1999L54.3999 34.2999ZM46.1999 44.0999L53.4999 53.8999C52.2999 54.9999 51.0999 55.9999 49.7999 56.7999L42.5999 47.0999C43.8999 46.2999 45.0999 45.2999 46.1999 44.0999ZM48.4999 57.5999C47.0999 58.3999 45.6999 59.0999 44.1999 59.6999L36.5999 49.4999C38.1999 49.0999 39.7999 48.5999 41.1999 47.7999L48.4999 57.5999ZM31.8999 49.9999C32.9999 49.9999 33.9999 49.9999 34.9999 49.7999L42.7999 60.2999C41.1999 60.8999 39.5999 61.2999 37.8999 61.5999L31.2999 52.7999L31.8999 49.9999ZM29.3999 61.8999L30.8999 54.6999L36.1999 61.7999C34.9999 61.8999 33.7999 61.9999 32.4999 61.9999C31.4999 62.0999 30.3999 61.9999 29.3999 61.8999ZM56.0999 51.1999C55.5999 51.7999 55.0999 52.2999 54.5999 52.8999L47.1999 42.9999C48.2999 41.6999 49.1999 40.1999 49.7999 38.5999L57.5999 49.0999C57.1999 49.7999 56.6999 50.4999 56.0999 51.1999ZM61.5999 41.5999L56.1999 34.2999H63.2999C62.9999 36.7999 62.4999 39.1999 61.5999 41.5999Z" fill="#efab51" id="svg_3" fill-opacity="1"/>
<path d="M21.3001 44.3999C17.8001 41.3999 15.6001 37.1999 15.2001 32.5999C14.8001 27.9999 16.3001 23.4999 19.3001 19.8999C19.9001 19.1999 20.5001 18.5999 21.2001 17.9999L21.7001 17.5999L13.4001 4.8999L12.8001 5.3999C11.0001 6.7999 9.30007 8.3999 7.80007 10.0999C-3.79994 23.6999 -2.09994 44.2999 11.5001 55.7999C15.0001 58.7999 19.1001 60.9999 23.5001 62.1999L24.3001 62.3999L27.4001 47.5999L26.8001 47.3999C24.7001 46.7999 22.9001 45.7999 21.3001 44.3999ZM23.2001 60.5999C19.3001 59.3999 15.7001 57.3999 12.5001 54.6999C-0.499935 43.6999 -2.09994 24.0999 8.90006 11.0999C10.1001 9.6999 11.5001 8.2999 13.0001 7.0999L19.7001 17.2999C19.1001 17.7999 18.6001 18.3999 18.1001 18.9999C14.8001 22.7999 13.3001 27.6999 13.7001 32.7999C14.1001 37.7999 16.5001 42.3999 20.3001 45.6999C21.9001 46.9999 23.7001 48.0999 25.7001 48.8999L23.2001 60.5999Z" fill="#efab51" id="svg_4" fill-opacity="1"/>
<path d="M64.7999 28.7999V27.2999H61.5999V1.3999H54.5999V27.2999H52.0999V6.8999H45.0999V27.2999H42.5999V12.2999H35.5999V27.2999H33.0999V17.1999H26.0999V27.2999H22.8999V28.7999H64.7999ZM56.0999 2.8999H60.0999V27.2999H56.0999V2.8999ZM46.5999 8.3999H50.5999V27.2999H46.5999V8.3999ZM37.0999 13.7999H41.0999V27.2999H37.0999V13.7999ZM27.5999 18.6999H31.5999V27.2999H27.5999V18.6999Z" fill="#efab51" id="svg_5" fill-opacity="1"/>
</g></g></svg>