<svg width="31" height="43" viewBox="0 0 31 43" fill="none" xmlns="http://www.w3.org/2000/svg">
<g clip-path="url(#clip0)">
<path d="M30.3638 20.631C30.3626 20.6268 30.3626 20.6226 30.3613 20.6184L24.1051 6.596C24.0938 6.5708 24.0801 6.5456 24.0651 6.5204C23.6376 5.5936 22.7763 5 21.8476 5H9.3476C8.4201 5 7.5601 5.5922 7.1326 6.5162C7.11635 6.5414 7.1026 6.5694 7.0901 6.5974L0.833848 20.6198C0.830098 20.6296 0.830098 20.6394 0.826348 20.6492C0.683848 21.002 0.600098 21.3884 0.600098 21.8V27.4C0.600098 28.9442 1.72135 30.2 3.1001 30.2H28.1001C29.4788 30.2 30.6001 28.9442 30.6001 27.4V21.8C30.6001 21.3814 30.5126 20.988 30.3638 20.631ZM8.17635 7.2988C8.1951 7.2694 8.21135 7.2386 8.2251 7.205C8.43635 6.7094 8.86635 6.4014 9.3501 6.4014H21.8501C22.3338 6.4014 22.7651 6.7094 22.9751 7.205C22.9888 7.2358 23.0038 7.2652 23.0213 7.2946L28.2526 19.0168C28.2013 19.014 28.1526 19 28.1001 19H3.1001C3.0476 19 2.99885 19.014 2.9476 19.0168L8.17635 7.2988ZM29.3501 27.4C29.3501 28.1714 28.7888 28.8 28.1001 28.8H3.1001C2.41135 28.8 1.8501 28.1714 1.8501 27.4V21.8C1.8501 21.0286 2.41135 20.4 3.1001 20.4H28.1001C28.7888 20.4 29.3501 21.0286 29.3501 21.8V27.4ZM8.1001 24.6C8.7901 24.6 9.3501 23.9728 9.3501 23.2C9.3501 22.4272 8.7901 21.8 8.1001 21.8C7.4101 21.8 6.8501 22.4272 6.8501 23.2C6.8501 23.9728 7.4101 24.6 8.1001 24.6ZM4.3501 24.6C5.0401 24.6 5.6001 23.9728 5.6001 23.2C5.6001 22.4272 5.0401 21.8 4.3501 21.8C3.6601 21.8 3.1001 22.4272 3.1001 23.2C3.1001 23.9728 3.6601 24.6 4.3501 24.6ZM27.4751 26H3.7251C3.3801 26 3.1001 26.3136 3.1001 26.7C3.1001 27.0864 3.3801 27.4 3.7251 27.4H27.4751C27.8201 27.4 28.1001 27.0864 28.1001 26.7C28.1001 26.3136 27.8201 26 27.4751 26Z" fill="#9B9B9B"/>
</g>
<defs>
<clipPath id="clip0">
<rect width="30" height="42" fill="white" transform="translate(0.600098 0.800049)"/>
</clipPath>
</defs>
</svg>
