<svg width="30" height="29" viewBox="0 0 30 29" fill="none" xmlns="http://www.w3.org/2000/svg">
<path d="M15 0.694336C7.10156 0.694336 0.703125 7.01279 0.703125 14.8125C0.703125 22.6122 7.10156 28.9307 15 28.9307C22.8984 28.9307 29.2969 22.6122 29.2969 14.8125C29.2969 7.01279 22.8984 0.694336 15 0.694336ZM24.375 14.8125C24.375 19.9274 20.1797 24.0703 15 24.0703C9.82031 24.0703 5.625 19.9274 5.625 14.8125C5.625 9.69756 9.82031 5.55469 15 5.55469C17.4609 5.55469 19.7812 6.48047 21.5391 8.17002L19.8984 9.83643C18.5859 8.56348 16.8516 7.86914 15 7.86914C11.1328 7.86914 7.96875 10.9937 7.96875 14.8125C7.96875 18.6313 11.1328 21.7559 15 21.7559C18.4688 21.7559 21.4688 19.2563 22.0312 15.9697H15V13.6553H24.375V14.8125Z" fill="white"/>
</svg>
