<svg width="16" height="22" viewBox="0 0 16 22" fill="none" xmlns="http://www.w3.org/2000/svg">
<path opacity="0.599114" fill-rule="evenodd" clip-rule="evenodd" d="M7.59819 21.6855C7.68345 21.8162 7.82556 21.8947 7.97729 21.8947C8.12903 21.8947 8.27114 21.8162 8.3564 21.6855C8.62921 21.2665 15.0378 11.38 15.0378 7.47262C15.0378 3.4102 11.8704 0.105347 7.97729 0.105347C4.08415 0.105347 0.916992 3.4102 0.916992 7.47262C0.916992 11.38 7.32538 21.2661 7.59819 21.6855ZM1.83366 7.47262C1.83366 3.93751 4.5897 1.06187 7.97729 1.06187C11.3651 1.06187 14.1212 3.93751 14.1212 7.47262C14.1212 10.5734 9.3702 18.3418 7.97729 20.5529C6.58439 18.3418 1.83366 10.5743 1.83366 7.47262Z" fill="white"/>
<path opacity="0.599114" fill-rule="evenodd" clip-rule="evenodd" d="M4.33594 7.47866C4.33594 9.57386 5.96942 11.2786 7.97709 11.2786C9.98499 11.2786 11.6185 9.57386 11.6185 7.47866C11.6185 5.38347 9.98499 3.6792 7.97709 3.6792C5.96942 3.6792 4.33594 5.38347 4.33594 7.47866ZM5.2526 7.47866C5.2526 5.91124 6.47475 4.63572 7.97709 4.63572C9.47943 4.63572 10.7018 5.91124 10.7018 7.47866C10.7018 9.04656 9.47943 10.3221 7.97709 10.3221C6.47475 10.3221 5.2526 9.04656 5.2526 7.47866Z" fill="white"/>
</svg>
