<svg width="56" height="56" viewBox="0 0 56 56" fill="none" xmlns="http://www.w3.org/2000/svg">
<path opacity="0.599114" fill-rule="evenodd" clip-rule="evenodd" d="M29.5223 55.1993C29.7393 55.5322 30.1011 55.7319 30.4873 55.7319C30.8735 55.7319 31.2353 55.5322 31.4523 55.1993C32.1467 54.1329 48.4596 28.9671 48.4596 19.0211C48.4596 8.68043 40.3971 0.268066 30.4873 0.268066C20.5775 0.268066 12.5156 8.68043 12.5156 19.0211C12.5156 28.9671 28.8279 54.1317 29.5223 55.1993ZM14.849 19.0211C14.849 10.0227 21.8643 2.70285 30.4873 2.70285C39.1108 2.70285 46.1262 10.0227 46.1262 19.0211C46.1262 26.914 34.0329 46.6882 30.4873 52.3163C26.9417 46.6882 14.849 26.9163 14.849 19.0211Z" fill="#FC6E51"/>
<path opacity="0.599114" fill-rule="evenodd" clip-rule="evenodd" d="M21.2188 19.0366C21.2188 24.3698 25.3767 28.7092 30.4871 28.7092C35.5981 28.7092 39.7561 24.3698 39.7561 19.0366C39.7561 13.7034 35.5981 9.36523 30.4871 9.36523C25.3767 9.36523 21.2188 13.7034 21.2188 19.0366ZM23.5521 19.0366C23.5521 15.0468 26.663 11.8 30.4871 11.8C34.3113 11.8 37.4228 15.0468 37.4228 19.0366C37.4228 23.0276 34.3113 26.2744 30.4871 26.2744C26.663 26.2744 23.5521 23.0276 23.5521 19.0366Z" fill="#FC6E51"/>
<path opacity="0.599114" d="M24.717 45.0596H1.16667C0.52238 45.0596 0 44.7873 0 44.4509C0 44.1144 0.52238 43.8422 1.16667 43.8422H24.717C25.3613 43.8422 25.8837 44.1144 25.8837 44.4509C25.8837 44.7873 25.3613 45.0596 24.717 45.0596Z" fill="#FC6E51"/>
<path opacity="0.599114" d="M54.8333 54.5145H31.2829C30.6386 54.5145 30.1162 54.2423 30.1162 53.9058C30.1162 53.5694 30.6386 53.2971 31.2829 53.2971H54.8333C55.4775 53.2971 55.9999 53.5694 55.9999 53.9058C55.9999 54.2423 55.4775 54.5145 54.8333 54.5145Z" fill="#FC6E51"/>
</svg>
