<svg width="30" height="21" viewBox="0 0 30 21" fill="none" xmlns="http://www.w3.org/2000/svg">
<path fill-rule="evenodd" clip-rule="evenodd" d="M28.0367 1.85921L28.0355 1.85729L28.0342 1.85537C28.0261 1.84629 28.0167 1.83987 28.0072 1.83336C28.0019 1.82978 27.9967 1.82618 27.9915 1.82209C27.6585 1.50785 27.2175 1.31201 26.727 1.31201H2.87304C2.38439 1.31201 1.94279 1.50849 1.60845 1.82209C1.60333 1.82637 1.59786 1.83012 1.59239 1.83386C1.58315 1.8402 1.57392 1.84652 1.56643 1.85537L1.56517 1.85729L1.56392 1.85921C1.21766 2.20673 1 2.68929 1 3.22305V18.377C1 18.9107 1.21704 19.3933 1.56392 19.7408L1.56517 19.7427L1.56643 19.7447C1.571 19.7505 1.57673 19.754 1.58236 19.7574C1.58598 19.7596 1.58958 19.7617 1.59277 19.7645C1.92836 20.0871 2.37686 20.288 2.87304 20.288H26.7263C27.2225 20.288 27.671 20.0871 28.0066 19.7645C28.01 19.761 28.0141 19.7584 28.0182 19.7558C28.0232 19.7527 28.0282 19.7495 28.0323 19.7447L28.0329 19.7439L28.0336 19.7427L28.0348 19.7408C28.383 19.3946 28.5994 18.9114 28.5994 18.377V3.22305C28.6 2.68929 28.383 2.20673 28.0367 1.85921ZM18.3886 10.8L27.7632 2.51777C27.8956 2.71937 27.9727 2.96193 27.9727 3.22305V18.377C27.9727 18.6381 27.8956 18.8807 27.7632 19.0823L18.3886 10.8ZM27.2859 2.09281C27.1178 2.00513 26.9289 1.95137 26.727 1.95137H2.87429C2.67168 1.95137 2.48413 2.00513 2.31539 2.09281L13.7681 12.2112C14.3571 12.7315 15.2447 12.7315 15.8331 12.2112L27.2859 2.09281ZM1.83741 19.0816C1.70568 18.8807 1.62727 18.6381 1.62727 18.377V3.22305C1.62727 2.96193 1.70505 2.71937 1.83741 2.51777L11.2114 10.8L1.83741 19.0816ZM2.31414 19.5066C2.48287 19.5949 2.67105 19.6487 2.87304 19.6487H26.7245C26.9283 19.6487 27.1152 19.5949 27.2834 19.5066L17.9088 11.2231L16.2427 12.6951C15.8312 13.0599 15.3144 13.241 14.7994 13.241C14.2838 13.241 13.7669 13.0579 13.356 12.6951L11.69 11.2231L2.31414 19.5066Z" fill="#9B9B9B" stroke="#9B9B9B"/>
</svg>
