<svg width="26" height="31" viewBox="0 0 26 31" fill="none" xmlns="http://www.w3.org/2000/svg">
<path d="M20.9168 0.400024H5.0835C3.82372 0.400024 2.61554 1.00056 1.72474 2.06952C0.833941 3.13847 0.333496 4.58829 0.333496 6.10002V25.1C0.333496 26.6118 0.833941 28.0616 1.72474 29.1305C2.61554 30.1995 3.82372 30.8 5.0835 30.8H16.4385C17.2784 30.8 18.0838 30.3996 18.6777 29.687L24.7393 22.4129C25.0334 22.0601 25.2666 21.6412 25.4258 21.1802C25.5849 20.7192 25.6668 20.225 25.6668 19.726V6.10002C25.6668 4.58829 25.1664 3.13847 24.2756 2.06952C23.3848 1.00056 22.1766 0.400024 20.9168 0.400024ZM17.7502 28.1131V23.2C17.7506 22.6963 17.9176 22.2134 18.2144 21.8572C18.5113 21.501 18.9137 21.3006 19.3335 21.3H23.4276L17.7502 28.1131ZM24.0835 19.4H19.3335C18.4936 19.4 17.6882 19.8004 17.0943 20.513C16.5005 21.2257 16.1668 22.1922 16.1668 23.2V28.9H5.0835C4.24394 28.8989 3.43905 28.4981 2.84539 27.7858C2.25173 27.0734 1.91779 26.1075 1.91683 25.1V6.10002C1.91778 5.09255 2.25171 4.12667 2.84537 3.41427C3.43903 2.70188 4.24393 2.30116 5.0835 2.30002H20.9168C21.7564 2.30116 22.5613 2.70188 23.155 3.41427C23.7486 4.12667 24.0825 5.09255 24.0835 6.10002V19.4Z" fill="#9B9B9B"/>
</svg>
