<svg xmlns="http://www.w3.org/2000/svg" width="100" height="125" fill="none"><rect id="backgroundrect" width="100%" height="100%" x="0" y="0" fill="none" stroke="none"/>


















<g class="currentLayer" style=""><title>Layer 1</title><path d="M82.1998 82.3999C81.9998 82.3999 81.7998 82.2999 81.5998 82.1999L75.3998 76.6999C74.9998 76.3999 74.9998 75.7999 75.2998 75.3999C75.5998 74.9999 76.1998 74.9999 76.5998 75.2999L82.0998 80.1999L90.4998 69.8999C90.7998 69.4999 91.3998 69.4999 91.6998 69.7999C92.0998 70.0999 92.0998 70.6999 91.7998 70.9999L82.7998 81.9999C82.7998 82.1999 82.4998 82.2999 82.1998 82.3999C82.2998 82.3999 82.2998 82.3999 82.1998 82.3999Z" fill="#04b8b8" id="svg_1" class="" fill-opacity="1"/><path d="M99.1 88.5998H66.4C65.9 88.5998 65.5 88.1998 65.5 87.6998V64.5998C65.5 64.0998 65.9 63.6998 66.4 63.6998H99.1C99.6 63.6998 100 64.0998 100 64.5998V87.6998C100 88.1998 99.6 88.5998 99.1 88.5998ZM67.3 86.7998H98.3V65.4998H67.3V86.7998Z" fill="#04b8b8" id="svg_2" class="" fill-opacity="1"/><path d="M95.5002 61.9999C95.0002 61.9999 94.6002 61.5999 94.6002 61.0999C94.6002 54.5999 89.3002 49.2999 82.8002 49.2999C76.3002 49.2999 71.0002 54.5999 71.0002 61.0999C71.0002 61.5999 70.6002 61.9999 70.1002 61.9999C69.6002 61.9999 69.2002 61.5999 69.2002 61.0999C69.2002 53.5999 75.3002 47.4999 82.8002 47.4999C90.3002 47.4999 96.4002 53.5999 96.4002 61.0999C96.4002 61.6999 96.0002 61.9999 95.5002 61.9999Z" fill="#04b8b8" id="svg_3" class="" fill-opacity="1"/><path d="M90.1999 61.9999C89.6999 61.9999 89.2999 61.5999 89.2999 61.0999C89.2999 57.4999 86.3999 54.5999 82.7999 54.5999C82.2999 54.5999 81.8999 54.1999 81.8999 53.6999C81.8999 53.1999 82.2999 52.7999 82.7999 52.7999C87.3999 52.7999 91.0999 56.4999 91.0999 61.0999C90.9999 61.6999 90.5999 61.9999 90.1999 61.9999Z" fill="#04b8b8" id="svg_4" class="" fill-opacity="1"/><path d="M55.5994 43C55.0994 43 54.6994 42.6 54.6994 42.1C54.6994 39.4 53.5994 36.9 51.6994 35.1C51.2994 34.8 51.2994 34.2 51.6994 33.8C51.9994 33.4 52.5994 33.4 52.9994 33.8C55.2994 36 56.4994 38.9 56.4994 42.1C56.4994 42.6 56.0994 43 55.5994 43Z" fill="#04b8b8" id="svg_5" class="" fill-opacity="1"/><path d="M36.1996 36.8C35.9996 36.8 35.7996 36.7 35.6996 36.6C35.2996 36.3 35.1996 35.8 35.4996 35.4C37.6996 32.4 41.1996 30.6 44.8996 30.6C46.6996 30.6 48.3996 31 50.0996 31.8C50.4996 32 50.6996 32.6 50.4996 33C50.2996 33.4 49.6996 33.6 49.2996 33.4C47.8996 32.7 46.4996 32.4 44.8996 32.4C41.7996 32.4 38.7996 33.9 36.9996 36.4C36.7996 36.6 36.4996 36.8 36.1996 36.8Z" fill="#04b8b8" id="svg_6" class="" fill-opacity="1"/><path d="M34.5996 47.7C34.1996 47.7 33.8996 47.5 33.7996 47.1C33.2996 45.8 33.0996 44.5 33.0996 43.1C33.0996 41.3 33.4996 39.5 34.2996 37.9C34.4996 37.5 35.0996 37.3 35.4996 37.5C35.8996 37.7 36.0996 38.3 35.8996 38.7C35.1996 40.1 34.7996 41.6 34.7996 43.1C34.7996 44.3 34.9996 45.4 35.3996 46.5C35.5996 47 35.2996 47.5 34.8996 47.6C34.7996 47.7 34.6996 47.7 34.5996 47.7Z" fill="#04b8b8" id="svg_7" class="" fill-opacity="1"/><path d="M51.9995 51.7C51.8995 51.7 51.8995 51.7 51.7995 51.7C51.2995 51.6 50.9995 51.2 51.0995 50.7C51.5995 47.9 51.5995 45.2 51.5995 43.5C51.4995 42.1 51.1995 40.6999 50.5995 39.5999C49.6995 37.8999 48.0995 36 44.8995 36C42.9995 36 41.0995 36.7999 39.8995 38.2999C39.5995 38.6999 38.9995 38.8 38.5995 38.5C38.1995 38.2 38.0995 37.6999 38.3995 37.2999C38.3995 37.2999 38.3995 37.3 38.3995 37.2C39.9995 35.3 42.2995 34.2 44.7995 34.2C47.9995 34.2 50.4995 35.7999 52.0995 38.7999C52.7995 40.1999 53.1995 41.8 53.2995 43.5C53.3995 45.4 53.2995 48.1999 52.7995 51.0999C52.7995 51.3999 52.3995 51.7 51.9995 51.7Z" fill="#04b8b8" id="svg_8" class="" fill-opacity="1"/><path d="M37.1997 50.6C37.0997 50.6 36.8997 50.6 36.7997 50.5C36.3997 50.3 36.1998 49.8 36.3998 49.3C37.4998 47.1 37.1997 44.1 36.9997 43C36.8997 42.3 36.8997 41.6 36.9997 40.9C37.0997 40.4 37.4997 40.1 37.9997 40.1C38.4997 40.2 38.7997 40.6 38.7997 41.1C38.6997 41.6 38.6997 42.2 38.7997 42.7C38.9997 44.4 39.2997 47.6 38.0997 50.1C37.7997 50.4 37.4997 50.6 37.1997 50.6Z" fill="#04b8b8" id="svg_9" class="" fill-opacity="1"/><path d="M47.7995 53.5C47.6995 53.5 47.5995 53.5 47.4995 53.5C46.9995 53.3 46.7995 52.8 46.8995 52.4C47.4995 50.4 47.8995 48.2 47.8995 45.9C47.8995 45.4 48.2995 45 48.7995 45C49.2995 45 49.6995 45.4 49.6995 45.9C49.6995 48.4 49.2995 50.8 48.5995 52.9C48.4995 53.3 48.0995 53.5 47.7995 53.5Z" fill="#04b8b8" id="svg_10" class="" fill-opacity="1"/><path d="M39.9994 52.7999C39.7994 52.7999 39.5994 52.6999 39.4994 52.5999C39.0994 52.2999 38.9994 51.6999 39.2994 51.3999C39.2994 51.3999 41.3994 48.5999 40.4994 44.7999C40.4994 44.5999 39.3994 39.5999 43.0994 38.0999C43.6994 37.8999 44.3994 37.7999 45.0994 37.7999C47.0994 37.9999 48.6994 39.1999 49.1994 41.0999C49.2994 41.3999 49.3994 41.6999 49.3994 42.0999C49.4994 42.4999 49.4994 43.0999 49.5994 43.8999C49.5994 44.3999 49.2994 44.7999 48.7994 44.7999C48.2994 44.7999 47.8994 44.4999 47.8994 43.9999C47.8994 43.2999 47.7994 42.6999 47.6994 42.2999C47.6994 41.9999 47.5994 41.7999 47.5994 41.5999C47.1994 40.2999 46.2994 39.5999 44.9994 39.4999C44.5994 39.4999 44.1994 39.4999 43.7994 39.6999C41.4994 40.5999 42.1994 44.2999 42.2994 44.3999C43.2994 48.9999 40.8994 52.2999 40.7994 52.3999C40.5994 52.6999 40.2994 52.7999 39.9994 52.7999Z" fill="#04b8b8" id="svg_11" class="" fill-opacity="1"/><path d="M43.4997 54.0999C43.3997 54.0999 43.1997 54.0999 43.0997 53.9999C42.6997 53.7999 42.4997 53.1999 42.7997 52.7999C43.4997 51.5999 43.9997 50.0999 44.1997 48.4999C44.2997 47.9999 44.6997 47.6999 45.1997 47.7999C45.6997 47.8999 45.9997 48.2999 45.8997 48.7999C45.5997 50.6999 45.0997 52.2999 44.2997 53.7999C44.0997 53.8999 43.7997 54.0999 43.4997 54.0999Z" fill="#04b8b8" id="svg_12" class="" fill-opacity="1"/><path d="M45.1995 45.9C44.6995 45.9 44.2995 45.5 44.2995 45C44.1995 43.2 43.8995 42 43.8995 42C43.7995 41.5 44.0995 41 44.5995 40.9C45.0995 40.8 45.5995 41.1 45.6995 41.6C45.6995 41.7 45.9995 43 46.0995 45C46.0995 45.5 45.6995 45.9 45.1995 45.9Z" fill="#04b8b8" id="svg_13" class="" fill-opacity="1"/><path d="M44.7998 58.2999C35.9998 58.2999 28.7998 51.0999 28.7998 42.2999C28.7998 33.4999 35.9998 26.2999 44.7998 26.2999C53.5998 26.2999 60.7998 33.4999 60.7998 42.2999C60.7998 51.1999 53.5998 58.2999 44.7998 58.2999ZM44.7998 28.0999C36.8998 28.0999 30.5998 34.4999 30.5998 42.2999C30.5998 50.1999 36.9998 56.4999 44.7998 56.4999C52.6998 56.4999 58.9998 50.0999 58.9998 42.2999C58.9998 34.4999 52.5998 28.0999 44.7998 28.0999Z" fill="#04b8b8" id="svg_14" class="" fill-opacity="1"/><path d="M62.8 76.5999H7.6C3.4 76.5999 0 73.1999 0 68.9999V65.9999C0 65.4999 0.4 65.0999 0.9 65.0999H62.8C63.3 65.0999 63.7 65.4999 63.7 65.9999C63.7 66.4999 63.3 66.8999 62.8 66.8999H1.8V68.9999C1.8 72.1999 4.4 74.8999 7.7 74.8999H62.9C63.4 74.8999 63.8 75.2999 63.8 75.7999C63.7 76.1999 63.3 76.5999 62.8 76.5999Z" fill="#04b8b8" id="svg_15" class="" fill-opacity="1"/><path d="M6.7999 66.8999C6.2999 66.8999 5.8999 66.4999 5.8999 65.9999V15.4999C5.8999 13.1999 7.7999 11.3999 9.9999 11.3999H79.4999C81.7999 11.3999 83.5999 13.2999 83.5999 15.4999V44.5999C83.5999 45.0999 83.1999 45.4999 82.6999 45.4999C82.1999 45.4999 81.7999 45.0999 81.7999 44.5999V15.4999C81.7999 14.1999 80.6999 13.0999 79.3999 13.0999H9.9999C8.6999 13.0999 7.5999 14.1999 7.5999 15.4999V65.9999C7.6999 66.4999 7.2999 66.8999 6.7999 66.8999Z" fill="#04b8b8" id="svg_16" class="" fill-opacity="1"/><path d="M13.6002 60.5C13.1002 60.5 12.7002 60.0999 12.7002 59.5999V19.1C12.7002 18.6 13.1002 18.2 13.6002 18.2H75.9002C76.4002 18.2 76.8002 18.6 76.8002 19.1V46.4C76.8002 46.9 76.4002 47.2999 75.9002 47.2999C75.4002 47.2999 75.0002 46.9 75.0002 46.4V20H14.5002V59.7C14.5002 60.1 14.1002 60.5 13.6002 60.5Z" fill="#04b8b8" id="svg_17" class="" fill-opacity="1"/><path d="M52.1998 70.9999H37.2998C35.5998 70.9999 34.2998 69.5999 34.2998 67.9999V65.9999C34.2998 65.4999 34.6998 65.0999 35.1998 65.0999C35.6998 65.0999 36.0998 65.4999 36.0998 65.9999V67.9999C36.0998 68.6999 36.6998 69.1999 37.2998 69.1999H52.0998C52.7998 69.1999 53.2998 68.5999 53.2998 67.9999V65.9999C53.2998 65.4999 53.6998 65.0999 54.1998 65.0999C54.6998 65.0999 55.0998 65.4999 55.0998 65.9999V67.9999C55.1998 69.6999 53.8998 70.9999 52.1998 70.9999Z" fill="#04b8b8" id="svg_18" class="" fill-opacity="1"/></g></svg>