<svg width="38" height="35" viewBox="0 0 38 35" fill="none" xmlns="http://www.w3.org/2000/svg">
<path fill-rule="evenodd" clip-rule="evenodd" d="M3.92279 16.3736L5.04595 15.5603V33.5284C5.04595 33.9671 5.40431 34.3267 5.84684 34.3267H31.8384C32.2785 34.3267 32.6392 33.9695 32.6392 33.5284V15.5585L33.7648 16.3736C34.9337 17.2198 36.3503 16.889 37.1656 15.7767C37.9833 14.6619 37.8534 13.2092 36.687 12.363L20.2556 0.462971C19.4042 -0.153125 18.2834 -0.155522 17.432 0.462971L1.00063 12.363C-0.168226 13.2116 -0.29329 14.6524 0.522027 15.7743C1.33494 16.889 2.75633 17.2198 3.92279 16.3736ZM6.65253 14.3958L18.8462 5.56674L31.0399 14.3958V32.7301H23.7573V24.1527C23.7573 21.463 21.5447 19.2575 18.8462 19.2575C16.1477 19.2575 13.9351 21.463 13.9351 24.1527V32.7301H6.65253V14.3958ZM22.1532 24.1527V32.7301H15.5392V24.1527C15.5392 22.3356 17.0256 20.8565 18.8462 20.8565C20.6692 20.8565 22.1532 22.338 22.1532 24.1527ZM18.8486 3.59619L2.98481 15.0815C2.56152 15.3907 2.09975 15.2277 1.81355 14.8369C1.53215 14.4486 1.52253 13.9571 1.94342 13.6527L18.3748 1.7527C18.6634 1.54414 19.0314 1.54414 19.32 1.7527L35.7514 13.6527C36.1795 13.9619 36.1603 14.4486 35.8765 14.8393C35.5951 15.2277 35.1285 15.3859 34.7076 15.0815L18.8486 3.59619Z" fill="black"/>
</svg>
