<svg width="20" height="18" viewBox="0 0 20 18" fill="none" xmlns="http://www.w3.org/2000/svg">
<path d="M15.4938 17.7903C15.5883 17.7828 15.6801 17.7558 15.7631 17.7112C15.8461 17.6666 15.9184 17.6053 15.9752 17.5314C16.032 17.4576 16.072 17.3728 16.0926 17.2828C16.1132 17.1927 16.1139 17.0994 16.0946 17.0091L14.9123 11.4127L19.2496 7.55979C19.3446 7.47553 19.4127 7.36641 19.4457 7.24548C19.4787 7.12455 19.4751 6.99693 19.4355 6.87792C19.3958 6.75891 19.3217 6.65353 19.2221 6.5744C19.1225 6.49527 19.0015 6.44574 18.8737 6.43174L13.036 5.79429L10.6103 0.591539C10.5574 0.477131 10.4717 0.380021 10.3634 0.311893C10.2551 0.243766 10.1289 0.20752 9.99989 0.20752C9.87092 0.20752 9.74469 0.243766 9.63639 0.311893C9.5281 0.380021 9.44235 0.477131 9.38946 0.591539L6.9638 5.79429L1.12615 6.43174C0.998321 6.44574 0.877351 6.49527 0.777716 6.5744C0.67808 6.65353 0.604 6.75891 0.564342 6.87792C0.524684 6.99693 0.521127 7.12455 0.554098 7.24548C0.58707 7.36641 0.655172 7.47553 0.750253 7.55979L5.08753 11.4127L3.90521 17.0091C3.87935 17.1317 3.89034 17.2588 3.93685 17.3754C3.98337 17.4921 4.06344 17.5932 4.16749 17.6667C4.27154 17.7402 4.39516 17.783 4.52357 17.79C4.65197 17.7969 4.77972 17.7678 4.89153 17.706L9.99989 14.8843L15.1082 17.706C15.2251 17.7712 15.3595 17.8006 15.4938 17.7903ZM14.485 15.8655L10.3308 13.5687C10.23 13.513 10.1159 13.4836 9.9999 13.4836C9.88388 13.4836 9.76984 13.513 9.66899 13.5687L5.51484 15.8655L6.47545 11.3127C6.49876 11.202 6.49206 11.0874 6.45601 10.98C6.41996 10.8726 6.3558 10.7762 6.26983 10.7002L2.73897 7.56604L7.4907 7.04733C7.60618 7.03501 7.71638 6.99368 7.81045 6.92739C7.90452 6.86109 7.97924 6.77212 8.02724 6.66923L9.99989 2.43828L11.9726 6.66923C12.0206 6.77212 12.0953 6.86109 12.1894 6.92739C12.2834 6.99368 12.3936 7.03501 12.5091 7.04733L17.2608 7.56604L13.73 10.7002C13.644 10.7762 13.5798 10.8726 13.5438 10.98C13.5077 11.0873 13.501 11.202 13.5243 11.3127L14.485 15.8655Z" fill="white"/>
</svg>
