<svg width="19" height="18" viewBox="0 0 19 18" fill="none" xmlns="http://www.w3.org/2000/svg">
<path d="M14.9621 17.5828C15.0566 17.5753 15.1484 17.5483 15.2314 17.5037C15.3144 17.4591 15.3867 17.3978 15.4435 17.3239C15.5003 17.2501 15.5403 17.1653 15.5609 17.0752C15.5815 16.9852 15.5821 16.8919 15.5628 16.8016L14.3805 11.2051L18.7178 7.35227C18.8129 7.26801 18.881 7.15889 18.914 7.03796C18.9469 6.91703 18.9434 6.78941 18.9037 6.6704C18.8641 6.55139 18.79 6.44601 18.6903 6.36688C18.5907 6.28775 18.4697 6.23822 18.3419 6.22422L12.5043 5.58677L10.0786 0.38402C10.0257 0.269611 9.93995 0.172501 9.83165 0.104374C9.72336 0.0362463 9.59713 0 9.46815 0C9.33918 0 9.21295 0.0362463 9.10465 0.104374C8.99636 0.172501 8.91061 0.269611 8.85772 0.38402L6.43206 5.58677L0.594407 6.22422C0.466582 6.23822 0.345613 6.28775 0.245977 6.36688C0.146342 6.44601 0.0722619 6.55139 0.0326036 6.6704C-0.00705475 6.78941 -0.0106111 6.91703 0.0223601 7.03796C0.0553313 7.15889 0.123433 7.26801 0.218515 7.35227L4.55579 11.2051L3.37347 16.8016C3.34761 16.9241 3.3586 17.0513 3.40511 17.1679C3.45163 17.2845 3.5317 17.3857 3.63575 17.4592C3.7398 17.5327 3.86343 17.5755 3.99183 17.5824C4.12024 17.5894 4.24799 17.5602 4.3598 17.4984L9.46815 14.6768L14.5765 17.4984C14.6934 17.5637 14.8277 17.5931 14.9621 17.5828ZM13.9532 15.6579L9.79908 13.3612C9.69822 13.3054 9.58419 13.2761 9.46816 13.2761C9.35214 13.2761 9.2381 13.3054 9.13725 13.3612L4.9831 15.6579L5.94371 11.1052C5.96702 10.9945 5.96032 10.8798 5.92427 10.7725C5.88822 10.6651 5.82406 10.5687 5.7381 10.4927L2.20723 7.35852L6.95896 6.83981C7.07444 6.82749 7.18464 6.78616 7.27871 6.71987C7.37279 6.65357 7.4475 6.5646 7.4955 6.46171L9.46815 2.23076L11.4408 6.46171C11.4888 6.5646 11.5635 6.65357 11.6576 6.71987C11.7517 6.78616 11.8619 6.82749 11.9774 6.83981L16.7291 7.35852L13.1982 10.4927C13.1123 10.5687 13.0481 10.6651 13.012 10.7724C12.976 10.8798 12.9693 10.9945 12.9926 11.1052L13.9532 15.6579Z" fill="black"/>
</svg>
