    <svg width="80" height="27" viewBox="0 0 96 33" fill="none" xmlns="http://www.w3.org/2000/svg">
            <path d="M1.872 7.008H7.896C9 7.008 10.112 7.152 11.232 7.44C12.352 7.728 13.36 8.208 14.256 8.88C15.152 9.536 15.88 10.408 16.44 11.496C17 12.568 17.28 13.904 17.28 15.504C17.28 16.992 17 18.272 16.44 19.344C15.88 20.416 15.152 21.296 14.256 21.984C13.36 22.672 12.352 23.184 11.232 23.52C10.112 23.84 9 24 7.896 24H1.872V7.008ZM7.416 21.36C8.2 21.36 8.984 21.272 9.768 21.096C10.552 20.904 11.256 20.592 11.88 20.16C12.52 19.712 13.04 19.112 13.44 18.36C13.84 17.608 14.04 16.656 14.04 15.504C14.04 14.288 13.84 13.296 13.44 12.528C13.04 11.76 12.52 11.16 11.88 10.728C11.256 10.296 10.552 10 9.768 9.84C8.984 9.68 8.2 9.6 7.416 9.6H4.896V21.36H7.416ZM27.2081 22.536H27.1361C26.8481 23.048 26.3841 23.472 25.7441 23.808C25.1041 24.128 24.3761 24.288 23.5601 24.288C23.0961 24.288 22.6081 24.224 22.0961 24.096C21.6001 23.984 21.1361 23.792 20.7041 23.52C20.2881 23.232 19.9361 22.864 19.6481 22.416C19.3761 21.952 19.2401 21.384 19.2401 20.712C19.2401 19.848 19.4801 19.16 19.9601 18.648C20.4561 18.136 21.0881 17.744 21.8561 17.472C22.6241 17.2 23.4721 17.024 24.4001 16.944C25.3441 16.848 26.2641 16.8 27.1601 16.8V16.512C27.1601 15.792 26.8961 15.264 26.3681 14.928C25.8561 14.576 25.2401 14.4 24.5201 14.4C23.9121 14.4 23.3281 14.528 22.7681 14.784C22.2081 15.04 21.7441 15.352 21.3761 15.72L19.8881 13.968C20.5441 13.36 21.2961 12.904 22.1441 12.6C23.0081 12.296 23.8801 12.144 24.7601 12.144C25.7841 12.144 26.6241 12.288 27.2801 12.576C27.9521 12.864 28.4801 13.24 28.8641 13.704C29.2481 14.168 29.5121 14.688 29.6561 15.264C29.8161 15.84 29.8961 16.416 29.8961 16.992V24H27.2081V22.536ZM27.1601 18.744H26.5121C26.0481 18.744 25.5601 18.768 25.0481 18.816C24.5361 18.848 24.0641 18.936 23.6321 19.08C23.2001 19.208 22.8401 19.4 22.5521 19.656C22.2641 19.896 22.1201 20.232 22.1201 20.664C22.1201 20.936 22.1761 21.168 22.2881 21.36C22.4161 21.536 22.5761 21.68 22.7681 21.792C22.9601 21.904 23.1761 21.984 23.4161 22.032C23.6561 22.08 23.8961 22.104 24.1361 22.104C25.1281 22.104 25.8801 21.84 26.3921 21.312C26.9041 20.784 27.1601 20.064 27.1601 19.152V18.744ZM31.3611 14.784V12.48H33.3771V9.144H36.2091V12.48H39.0891V14.784H36.2091V20.136C36.2091 20.648 36.2971 21.072 36.4731 21.408C36.6651 21.744 37.0811 21.912 37.7211 21.912C37.9131 21.912 38.1211 21.896 38.3451 21.864C38.5691 21.816 38.7691 21.752 38.9451 21.672L39.0411 23.928C38.7851 24.024 38.4811 24.096 38.1291 24.144C37.7771 24.208 37.4411 24.24 37.1211 24.24C36.3531 24.24 35.7291 24.136 35.2491 23.928C34.7691 23.704 34.3851 23.408 34.0971 23.04C33.8251 22.656 33.6331 22.224 33.5211 21.744C33.4251 21.248 33.3771 20.72 33.3771 20.16V14.784H31.3611ZM48.3253 22.536H48.2533C47.9653 23.048 47.5013 23.472 46.8613 23.808C46.2213 24.128 45.4933 24.288 44.6773 24.288C44.2133 24.288 43.7253 24.224 43.2133 24.096C42.7173 23.984 42.2533 23.792 41.8213 23.52C41.4053 23.232 41.0533 22.864 40.7653 22.416C40.4933 21.952 40.3573 21.384 40.3573 20.712C40.3573 19.848 40.5973 19.16 41.0773 18.648C41.5733 18.136 42.2053 17.744 42.9733 17.472C43.7413 17.2 44.5893 17.024 45.5173 16.944C46.4613 16.848 47.3813 16.8 48.2773 16.8V16.512C48.2773 15.792 48.0133 15.264 47.4853 14.928C46.9733 14.576 46.3573 14.4 45.6373 14.4C45.0293 14.4 44.4453 14.528 43.8853 14.784C43.3253 15.04 42.8613 15.352 42.4933 15.72L41.0053 13.968C41.6613 13.36 42.4133 12.904 43.2613 12.6C44.1253 12.296 44.9973 12.144 45.8773 12.144C46.9013 12.144 47.7413 12.288 48.3973 12.576C49.0693 12.864 49.5973 13.24 49.9813 13.704C50.3653 14.168 50.6293 14.688 50.7733 15.264C50.9333 15.84 51.0133 16.416 51.0133 16.992V24H48.3253V22.536ZM48.2773 18.744H47.6293C47.1653 18.744 46.6773 18.768 46.1653 18.816C45.6533 18.848 45.1813 18.936 44.7493 19.08C44.3173 19.208 43.9573 19.4 43.6693 19.656C43.3813 19.896 43.2373 20.232 43.2373 20.664C43.2373 20.936 43.2933 21.168 43.4053 21.36C43.5333 21.536 43.6933 21.68 43.8853 21.792C44.0773 21.904 44.2933 21.984 44.5333 22.032C44.7733 22.08 45.0133 22.104 45.2533 22.104C46.2453 22.104 46.9973 21.84 47.5093 21.312C48.0213 20.784 48.2773 20.064 48.2773 19.152V18.744ZM54.5126 7.008H60.0566C61.0326 7.008 61.9126 7.096 62.6966 7.272C63.4806 7.448 64.1526 7.736 64.7126 8.136C65.2726 8.536 65.7046 9.048 66.0086 9.672C66.3126 10.296 66.4646 11.048 66.4646 11.928C66.4646 12.872 66.2886 13.664 65.9366 14.304C65.5846 14.944 65.1046 15.464 64.4966 15.864C63.9046 16.248 63.2086 16.528 62.4086 16.704C61.6086 16.88 60.7606 16.968 59.8646 16.968H57.5366V24H54.5126V7.008ZM59.6486 14.424C60.1446 14.424 60.6166 14.392 61.0646 14.328C61.5126 14.248 61.9126 14.12 62.2646 13.944C62.6166 13.752 62.8966 13.496 63.1046 13.176C63.3126 12.856 63.4166 12.44 63.4166 11.928C63.4166 11.432 63.3126 11.032 63.1046 10.728C62.8966 10.408 62.6166 10.16 62.2646 9.984C61.9286 9.808 61.5366 9.696 61.0886 9.648C60.6566 9.584 60.2086 9.552 59.7446 9.552H57.5366V14.424H59.6486ZM66.7748 18.192C66.7748 17.28 66.9348 16.456 67.2548 15.72C67.5908 14.968 68.0388 14.328 68.5988 13.8C69.1588 13.272 69.8228 12.864 70.5908 12.576C71.3588 12.288 72.1748 12.144 73.0388 12.144C73.9028 12.144 74.7188 12.288 75.4868 12.576C76.2548 12.864 76.9188 13.272 77.4788 13.8C78.0388 14.328 78.4788 14.968 78.7988 15.72C79.1348 16.456 79.3028 17.28 79.3028 18.192C79.3028 19.104 79.1348 19.936 78.7988 20.688C78.4788 21.44 78.0388 22.088 77.4788 22.632C76.9188 23.16 76.2548 23.576 75.4868 23.88C74.7188 24.184 73.9028 24.336 73.0388 24.336C72.1748 24.336 71.3588 24.184 70.5908 23.88C69.8228 23.576 69.1588 23.16 68.5988 22.632C68.0388 22.088 67.5908 21.44 67.2548 20.688C66.9348 19.936 66.7748 19.104 66.7748 18.192ZM69.7028 18.192C69.7028 18.64 69.7668 19.088 69.8948 19.536C70.0388 19.984 70.2468 20.384 70.5188 20.736C70.7908 21.088 71.1348 21.376 71.5508 21.6C71.9668 21.824 72.4628 21.936 73.0388 21.936C73.6148 21.936 74.1108 21.824 74.5268 21.6C74.9428 21.376 75.2868 21.088 75.5588 20.736C75.8308 20.384 76.0308 19.984 76.1588 19.536C76.3028 19.088 76.3748 18.64 76.3748 18.192C76.3748 17.744 76.3028 17.304 76.1588 16.872C76.0308 16.424 75.8308 16.024 75.5588 15.672C75.2868 15.32 74.9428 15.04 74.5268 14.832C74.1108 14.608 73.6148 14.496 73.0388 14.496C72.4628 14.496 71.9668 14.608 71.5508 14.832C71.1348 15.04 70.7908 15.32 70.5188 15.672C70.2468 16.024 70.0388 16.424 69.8948 16.872C69.7668 17.304 69.7028 17.744 69.7028 18.192ZM93.8072 24H91.0712V22.272H91.0232C90.6232 22.944 90.0632 23.456 89.3432 23.808C88.6392 24.16 87.8792 24.336 87.0632 24.336C86.1832 24.336 85.3912 24.176 84.6872 23.856C83.9992 23.52 83.4072 23.08 82.9112 22.536C82.4312 21.976 82.0552 21.328 81.7832 20.592C81.5272 19.84 81.3992 19.04 81.3992 18.192C81.3992 17.344 81.5352 16.552 81.8072 15.816C82.0792 15.08 82.4632 14.44 82.9592 13.896C83.4552 13.352 84.0472 12.928 84.7352 12.624C85.4232 12.304 86.1752 12.144 86.9912 12.144C87.5192 12.144 87.9912 12.208 88.4072 12.336C88.8232 12.448 89.1832 12.592 89.4872 12.768C89.8072 12.944 90.0792 13.136 90.3032 13.344C90.5272 13.552 90.7112 13.752 90.8552 13.944H90.9272V5.856H93.8072V24ZM84.3272 18.192C84.3272 18.64 84.3912 19.088 84.5192 19.536C84.6632 19.984 84.8712 20.384 85.1432 20.736C85.4152 21.088 85.7592 21.376 86.1752 21.6C86.5912 21.824 87.0792 21.936 87.6392 21.936C88.1672 21.936 88.6392 21.832 89.0552 21.624C89.4712 21.4 89.8232 21.112 90.1112 20.76C90.4152 20.408 90.6392 20.016 90.7832 19.584C90.9432 19.136 91.0232 18.688 91.0232 18.24C91.0232 17.792 90.9432 17.344 90.7832 16.896C90.6392 16.448 90.4152 16.048 90.1112 15.696C89.8232 15.344 89.4712 15.056 89.0552 14.832C88.6392 14.608 88.1672 14.496 87.6392 14.496C87.0792 14.496 86.5912 14.608 86.1752 14.832C85.7592 15.04 85.4152 15.32 85.1432 15.672C84.8712 16.024 84.6632 16.424 84.5192 16.872C84.3912 17.304 84.3272 17.744 84.3272 18.192Z" fill="#2D9CDB"/>
            <path fill-rule="evenodd" clip-rule="evenodd" d="M73 25C76.5899 25 79.5 22.0899 79.5 18.5C79.5 14.9101 76.5899 12 73 12C69.4101 12 66.5 14.9101 66.5 18.5C66.5 22.0899 69.4101 25 73 25Z" fill="#A0D468"/>
    </svg>